<?xml version="1.0" encoding="utf-8"?>
<!-- Generator: Adobe Illustrator 16.0.0, SVG Export Plug-In . SVG Version: 6.00 Build 0)  -->
<!DOCTYPE svg PUBLIC "-//W3C//DTD SVG 1.1//EN" "http://www.w3.org/Graphics/SVG/1.1/DTD/svg11.dtd">
<svg version="1.1" id="Layer_1" xmlns="http://www.w3.org/2000/svg" xmlns:xlink="http://www.w3.org/1999/xlink" x="0px" y="0px"
	 width="32px" height="32px" viewBox="-0.5 0.5 32 32" enable-background="new -0.5 0.5 32 32" xml:space="preserve">
<g id="back" display="none">
	<rect x="-296.5" y="-129.583" display="inline" fill="#383838" width="492.5" height="289.5"/>
</g>
<path fill="#2CC3FF" d="M27.413,15.91c-1.869-0.018-2.045-1.901-3.915-1.91c-1.88-0.01-2.12,1.911-4.002,1.91
	c-1.88-0.001-2.89-1.903-3.996-1.91c-1.128-0.007-2.196,1.929-4.087,1.91C9.543,15.893,9.369,14.009,7.5,14
	c-1.88-0.01-2.123,1.911-4.003,1.91C1.618,15.909-0.5,14-0.5,14v18.5h32V14C31.5,14,29.304,15.929,27.413,15.91z"/>
</svg>
